/* XPM */
static char *c126322d65fe45a5c23e40f7faac4d627P5OUH3V5QUqGyYX[] = {
/* columns rows colors chars-per-pixel */
"40 40 2 1 ",
"  c None",
". c white",
/* pixels */
"               .....                    ",
"               .....                    ",
"               .....                    ",
"               .....                    ",
"               .....                    ",
"          ..........                    ",
"          ..........                    ",
"          ..........                    ",
"          ..........                    ",
"          ..........                    ",
"               .....                    ",
"               .....                    ",
"               .....                    ",
"               .....                    ",
"               .....                    ",
"               .....                    ",
"               .....                    ",
"               .....                    ",
"               .....                    ",
"               .....                    ",
"               .....                    ",
"               .....                    ",
"               .....                    ",
"               .....                    ",
"               .....                    ",
"               .....                    ",
"               .....                    ",
"               .....                    ",
"               .....                    ",
"               .....                    ",
"               .....                    ",
"               .....                    ",
"               .....                    ",
"               .....                    ",
"               .....                    ",
"          ...............               ",
"          ...............               ",
"          ...............               ",
"          ...............               ",
"          ...............               "
};
