/* XPM */
static char *cb9aeaf6cfba4d17d934240639e03fd7Bt5tpQUTh71pXsTt[] = {
/* columns rows colors chars-per-pixel */
"128 128 5 1 ",
"  c #FC3EFA",
". c black",
"X c #1E071E",
"o c #DD37DB",
"O c #C631C4",
/* pixels */
"                                                               oX...............................................................",
"                                                               oX...............................................................",
"                                                               oX...............................................................",
"                                                               oX...............................................................",
"                                                               oX...............................................................",
"                                                               oX...............................................................",
"                                                               oX...............................................................",
"                                                               oX...............................................................",
"                                                               oX...............................................................",
"                                                               oX...............................................................",
"                                                               oX...............................................................",
"                                                               oX...............................................................",
"                                                               oX...............................................................",
"                                                               oX...............................................................",
"                                                               oX...............................................................",
"                                                               oX...............................................................",
"                                                               oX...............................................................",
"                                                               oX...............................................................",
"                                                               oX...............................................................",
"                                                               oX...............................................................",
"                                                               oX...............................................................",
"                                                               oX...............................................................",
"                                                               oX...............................................................",
"                                                               oX...............................................................",
"                                                               oX...............................................................",
"                                                               oX...............................................................",
"                                                               oX...............................................................",
"                                                               oX...............................................................",
"                                                               oX...............................................................",
"                                                               oX...............................................................",
"                                                               oX...............................................................",
"                                                               oX...............................................................",
"                                                               oX...............................................................",
"                                                               oX...............................................................",
"                                                               oX...............................................................",
"                                                               oX...............................................................",
"                                                               oX...............................................................",
"                                                               oX...............................................................",
"                                                               oX...............................................................",
"                                                               oX...............................................................",
"                                                               oX...............................................................",
"                                                               oX...............................................................",
"                                                               oX...............................................................",
"                                                               oX...............................................................",
"                                                               oX...............................................................",
"                                                               oX...............................................................",
"                                                               oX...............................................................",
"                                                               oX...............................................................",
"                                                               oX...............................................................",
"                                                               oX...............................................................",
"                                                               oX...............................................................",
"                                                               oX...............................................................",
"                                                               oX...............................................................",
"                                                               oX...............................................................",
"                                                               oX...............................................................",
"                                                               oX...............................................................",
"                                                               oX...............................................................",
"                                                               oX...............................................................",
"                                                               oX...............................................................",
"                                                               oX...............................................................",
"                                                               oX...............................................................",
"                                                               oX...............................................................",
"                                                               oX...............................................................",
"oooooooooooooooooooooooooooooooooooooooooooooooooooooooooooooooOXXXXXXXXXXXXXXXXXXXXXXXXXXXXXXXXXXXXXXXXXXXXXXXXXXXXXXXXXXXXXXXX",
"XXXXXXXXXXXXXXXXXXXXXXXXXXXXXXXXXXXXXXXXXXXXXXXXXXXXXXXXXXXXXXXXOooooooooooooooooooooooooooooooooooooooooooooooooooooooooooooooo",
"...............................................................Xo                                                               ",
"...............................................................Xo                                                               ",
"...............................................................Xo                                                               ",
"...............................................................Xo                                                               ",
"...............................................................Xo                                                               ",
"...............................................................Xo                                                               ",
"...............................................................Xo                                                               ",
"...............................................................Xo                                                               ",
"...............................................................Xo                                                               ",
"...............................................................Xo                                                               ",
"...............................................................Xo                                                               ",
"...............................................................Xo                                                               ",
"...............................................................Xo                                                               ",
"...............................................................Xo                                                               ",
"...............................................................Xo                                                               ",
"...............................................................Xo                                                               ",
"...............................................................Xo                                                               ",
"...............................................................Xo                                                               ",
"...............................................................Xo                                                               ",
"...............................................................Xo                                                               ",
"...............................................................Xo                                                               ",
"...............................................................Xo                                                               ",
"...............................................................Xo                                                               ",
"...............................................................Xo                                                               ",
"...............................................................Xo                                                               ",
"...............................................................Xo                                                               ",
"...............................................................Xo                                                               ",
"...............................................................Xo                                                               ",
"...............................................................Xo                                                               ",
"...............................................................Xo                                                               ",
"...............................................................Xo                                                               ",
"...............................................................Xo                                                               ",
"...............................................................Xo                                                               ",
"...............................................................Xo                                                               ",
"...............................................................Xo                                                               ",
"...............................................................Xo                                                               ",
"...............................................................Xo                                                               ",
"...............................................................Xo                                                               ",
"...............................................................Xo                                                               ",
"...............................................................Xo                                                               ",
"...............................................................Xo                                                               ",
"...............................................................Xo                                                               ",
"...............................................................Xo                                                               ",
"...............................................................Xo                                                               ",
"...............................................................Xo                                                               ",
"...............................................................Xo                                                               ",
"...............................................................Xo                                                               ",
"...............................................................Xo                                                               ",
"...............................................................Xo                                                               ",
"...............................................................Xo                                                               ",
"...............................................................Xo                                                               ",
"...............................................................Xo                                                               ",
"...............................................................Xo                                                               ",
"...............................................................Xo                                                               ",
"...............................................................Xo                                                               ",
"...............................................................Xo                                                               ",
"...............................................................Xo                                                               ",
"...............................................................Xo                                                               ",
"...............................................................Xo                                                               ",
"...............................................................Xo                                                               ",
"...............................................................Xo                                                               ",
"...............................................................Xo                                                               ",
"...............................................................Xo                                                               "
};
