/* XPM */
static char *_461837dec004de9e367b9dcd5da0575UFRq1rGa4BThblsZ[] = {
/* columns rows colors chars-per-pixel */
"128 128 4 1 ",
"  c None",
". c black",
"X c #777777",
"o c #852C78",
/* pixels */
"                                                                                                                                ",
"                                                                                                                                ",
"                  oo                            oo                            oo                            oo                  ",
"                  oo                            oo                            oo                            oo                  ",
"                oooo                          oooo                            oooo                          oooo                ",
"                oooo                          oooo                            oooo                          oooo                ",
"              oooo                            oo                                oo                            oooo              ",
"              oooo                            oo                                oo                            oooo              ",
"              oo                              oo                                oo                              oo              ",
"              oo                              oo                                oo                              oo              ",
"          XXXXXXXXXX                      XXXXXXXXXXoo                    ooXXXXXXXXXX                      XXXXXXXXXX          ",
"          XXXXXXXXXX                      XXXXXXXXXXoo                    ooXXXXXXXXXX                      XXXXXXXXXX          ",
"        XXXXXXXXXXXXXX                  XXXXXXXXXXXXXX                    XXXXXXXXXXXXXX                  XXXXXXXXXXXXXX        ",
"        XXXXXXXXXXXXXX                  XXXXXXXXXXXXXX                    XXXXXXXXXXXXXX                  XXXXXXXXXXXXXX        ",
"        XXXXXXXXXXXXXX                  XXXXXXXXXXXXXX                    XXXXXXXXXXXXXX                  XXXXXXXXXXXXXX        ",
"        XXXXXXXXXXXXXX                  XXXXXXXXXXXXXX                    XXXXXXXXXXXXXX                  XXXXXXXXXXXXXX        ",
"        ooXXXXXXXXXXoo                  ooXXXXXXXXXX                        XXXXXXXXXXoo                  ooXXXXXXXXXXoo        ",
"        ooXXXXXXXXXXoo                  ooXXXXXXXXXX                        XXXXXXXXXXoo                  ooXXXXXXXXXXoo        ",
"          XXXXXXXXXX                      XXXXXXXXXX                        XXXXXXXXXX                      XXXXXXXXXX          ",
"          XXXXXXXXXX                      XXXXXXXXXX                        XXXXXXXXXX                      XXXXXXXXXX          ",
"            XXXXXX                        ooXXXXXX                            XXXXXXoo                        XXXXXX            ",
"            XXXXXX                        ooXXXXXX                            XXXXXXoo                        XXXXXX            ",
"          XXXXXXXXXX                      XXXXXXXXXX                        XXXXXXXXXX                      XXXXXXXXXX          ",
"          XXXXXXXXXX                      XXXXXXXXXX                        XXXXXXXXXX                      XXXXXXXXXX          ",
"          ooXXXXXXoo                        XXXXXXoo                        ooXXXXXX                        ooXXXXXXoo          ",
"          ooXXXXXXoo                        XXXXXXoo                        ooXXXXXX                        ooXXXXXXoo          ",
"            ..XX..                          ..XX..                            ..XX..                          ..XX..            ",
"            ..XX..                          ..XX..                            ..XX..                          ..XX..            ",
"              XX                              XX                                XX                              XX              ",
"              XX                              XX                                XX                              XX              ",
"              oo                              oo                                oo                              oo              ",
"              oo                              oo                                oo                              oo              ",
"                                                                                                                                ",
"                                                                                                                                ",
"                                                                                                                                ",
"                                                                                                                                ",
"                                                                                                                                ",
"                                                                                                                                ",
"                                                                                                                                ",
"                                                                                                                                ",
"                                                                                                                                ",
"                                                                                                                                ",
"                                                                                                                                ",
"                                                                                                                                ",
"                                                                                                                                ",
"                                                                                                                                ",
"                                                                                                                                ",
"                                                                                                                                ",
"  oooo      XXXXXXXX    XX                  XXXXXXXX    XX                  XXXXXXXX    XX                  XXXXXXXX    XX      ",
"  oooo      XXXXXXXX    XX                  XXXXXXXX    XX                  XXXXXXXX    XX                  XXXXXXXX    XX      ",
"    oooo  XXXXXXXXXXXXXXXX..      oooo    XXXXXXXXXXXXXXXX..              XXXXXXXXXXXXXXXX..              XXXXXXXXXXXXXXXX..    ",
"    oooo  XXXXXXXXXXXXXXXX..      oooo    XXXXXXXXXXXXXXXX..              XXXXXXXXXXXXXXXX..              XXXXXXXXXXXXXXXX..    ",
"      ooooXXXXXXXXXXXXXXXXXXXXoo    ooooooXXXXXXXXXXXXXXXXXXXXoo    ooooooXXXXXXXXXXXXXXXXXXXXoo      ooooXXXXXXXXXXXXXXXXXXXXoo",
"      ooooXXXXXXXXXXXXXXXXXXXXoo    ooooooXXXXXXXXXXXXXXXXXXXXoo    ooooooXXXXXXXXXXXXXXXXXXXXoo      ooooXXXXXXXXXXXXXXXXXXXXoo",
"          XXXXXXXXXXXXXXXXXX              XXXXXXXXXXXXXXXXXX      oooo    XXXXXXXXXXXXXXXXXX        oooo  XXXXXXXXXXXXXXXXXX    ",
"          XXXXXXXXXXXXXXXXXX              XXXXXXXXXXXXXXXXXX      oooo    XXXXXXXXXXXXXXXXXX        oooo  XXXXXXXXXXXXXXXXXX    ",
"            XXXX    XXXX                  XXXXXX    XXXX                  XXXXXX    XXXX          oooo      XXXX    XXXX        ",
"            XXXX    XXXX                  XXXXXX    XXXX                  XXXXXX    XXXX          oooo      XXXX    XXXX        ",
"              XXoo    XXoo                oo  XXoo  oo  oo                oo  XXoo  oo  oo                    XXoo    XXoo      ",
"              XXoo    XXoo                oo  XXoo  oo  oo                oo  XXoo  oo  oo                    XXoo    XXoo      ",
"                                                                                                                                ",
"                                                                                                                                ",
"                                                                                                                                ",
"                                                                                                                                ",
"              oo                              oo                                oo                              oo              ",
"              oo                              oo                                oo                              oo              ",
"              XX                              XX                                XX                              XX              ",
"              XX                              XX                                XX                              XX              ",
"            ..XX..                          ..XX..                            ..XX..                          ..XX..            ",
"            ..XX..                          ..XX..                            ..XX..                          ..XX..            ",
"          ooXXXXXXoo                      ooXXXXXX                            XXXXXXoo                      ooXXXXXXoo          ",
"          ooXXXXXXoo                      ooXXXXXX                            XXXXXXoo                      ooXXXXXXoo          ",
"          XXXXXXXXXX                      XXXXXXXXXX                        XXXXXXXXXX                      XXXXXXXXXX          ",
"          XXXXXXXXXX                      XXXXXXXXXX                        XXXXXXXXXX                      XXXXXXXXXX          ",
"            XXXXXX                          XXXXXXoo                        ooXXXXXX                          XXXXXX            ",
"            XXXXXX                          XXXXXXoo                        ooXXXXXX                          XXXXXX            ",
"          XXXXXXXXXX                      XXXXXXXXXX                        XXXXXXXXXX                      XXXXXXXXXX          ",
"          XXXXXXXXXX                      XXXXXXXXXX                        XXXXXXXXXX                      XXXXXXXXXX          ",
"        ooXXXXXXXXXXoo                    XXXXXXXXXXoo                    ooXXXXXXXXXX                    ooXXXXXXXXXXoo        ",
"        ooXXXXXXXXXXoo                    XXXXXXXXXXoo                    ooXXXXXXXXXX                    ooXXXXXXXXXXoo        ",
"        XXXXXXXXXXXXXX                  XXXXXXXXXXXXXX                    XXXXXXXXXXXXXX                  XXXXXXXXXXXXXX        ",
"        XXXXXXXXXXXXXX                  XXXXXXXXXXXXXX                    XXXXXXXXXXXXXX                  XXXXXXXXXXXXXX        ",
"        XXXXXXXXXXXXXX                  XXXXXXXXXXXXXX                    XXXXXXXXXXXXXX                  XXXXXXXXXXXXXX        ",
"        XXXXXXXXXXXXXX                  XXXXXXXXXXXXXX                    XXXXXXXXXXXXXX                  XXXXXXXXXXXXXX        ",
"          XXXXXXXXXX                    ooXXXXXXXXXX                        XXXXXXXXXXoo                    XXXXXXXXXX          ",
"          XXXXXXXXXX                    ooXXXXXXXXXX                        XXXXXXXXXXoo                    XXXXXXXXXX          ",
"              oo                              oo                                oo                              oo              ",
"              oo                              oo                                oo                              oo              ",
"            oooo                              oo                                oo                              oooo            ",
"            oooo                              oo                                oo                              oooo            ",
"          oooo                              oooo                                oooo                              oooo          ",
"          oooo                              oooo                                oooo                              oooo          ",
"          oo                                oo                                    oo                                oo          ",
"          oo                                oo                                    oo                                oo          ",
"                                                                                                                                ",
"                                                                                                                                ",
"                                                                                                                                ",
"                                                                                                                                ",
"                                                                                                                                ",
"                                                                                                                                ",
"                                                                                                                                ",
"                                                                                                                                ",
"                                                                                                                                ",
"                                                                                                                                ",
"                                                                                                                                ",
"                                                                                                                                ",
"                                                                                                                                ",
"                                                                                                                                ",
"                                                                                                                                ",
"                                                                                                                                ",
"                                                                                                                                ",
"                                                                                                                                ",
"      XX    XXXXXXXX      oooo        XX    XXXXXXXX                  XX    XXXXXXXX                  XX    XXXXXXXX            ",
"      XX    XXXXXXXX      oooo        XX    XXXXXXXX                  XX    XXXXXXXX                  XX    XXXXXXXX            ",
"    ..XXXXXXXXXXXXXXXX  oooo        ..XXXXXXXXXXXXXXXX    oooo      ..XXXXXXXXXXXXXXXX              ..XXXXXXXXXXXXXXXX          ",
"    ..XXXXXXXXXXXXXXXX  oooo        ..XXXXXXXXXXXXXXXX    oooo      ..XXXXXXXXXXXXXXXX              ..XXXXXXXXXXXXXXXX          ",
"ooXXXXXXXXXXXXXXXXXXXXoooo      ooXXXXXXXXXXXXXXXXXXXXoooooo    ooXXXXXXXXXXXXXXXXXXXXoooooo    ooXXXXXXXXXXXXXXXXXXXXoooo      ",
"ooXXXXXXXXXXXXXXXXXXXXoooo      ooXXXXXXXXXXXXXXXXXXXXoooooo    ooXXXXXXXXXXXXXXXXXXXXoooooo    ooXXXXXXXXXXXXXXXXXXXXoooo      ",
"    XXXXXXXXXXXXXXXXXX              XXXXXXXXXXXXXXXXXX              XXXXXXXXXXXXXXXXXX    oooo      XXXXXXXXXXXXXXXXXX  oooo    ",
"    XXXXXXXXXXXXXXXXXX              XXXXXXXXXXXXXXXXXX              XXXXXXXXXXXXXXXXXX    oooo      XXXXXXXXXXXXXXXXXX  oooo    ",
"        XXXX    XXXX                    XXXX    XXXXXX                  XXXX    XXXXXX                  XXXX    XXXX      oooo  ",
"        XXXX    XXXX                    XXXX    XXXXXX                  XXXX    XXXXXX                  XXXX    XXXX      oooo  ",
"      ooXX    ooXX                    oo  oo  ooXX  oo                oo  oo  ooXX  oo                ooXX    ooXX              ",
"      ooXX    ooXX                    oo  oo  ooXX  oo                oo  oo  ooXX  oo                ooXX    ooXX              ",
"                                                                                                                                ",
"                                                                                                                                ",
"                                                                                                                                ",
"                                                                                                                                "
};
