/* XPM */
static char *d84f2b3f9aab4a20ee9da6eb83fb51e2v6ZX6o38y7Z0ZAd5[] = {
/* columns rows colors chars-per-pixel */
"128 128 42 1 ",
"  c #221E1D",
". c #2A2625",
"X c #2D2927",
"o c #292728",
"O c #2E2A29",
"+ c #322E2B",
"@ c #36312E",
"# c #38332F",
"$ c #363231",
"% c #3B3532",
"& c #3E3936",
"* c #393738",
"= c #3D3A39",
"- c #413A36",
"; c #443D3A",
": c #493F3D",
"> c #46413D",
", c #49413E",
"< c #464241",
"1 c #4C4542",
"2 c #4E4946",
"3 c #494748",
"4 c #4E4A49",
"5 c #504644",
"6 c #514946",
"7 c #544D4A",
"8 c #56514D",
"9 c #59514E",
"0 c #565151",
"q c #5C5552",
"w c #5E5955",
"e c #5D5958",
"r c #615956",
"t c #655D5A",
"y c #66615C",
"u c #69615E",
"i c #6D6562",
"p c #6F6963",
"a c #716966",
"s c #756D6A",
"d c #79716E",
"f c #7D7572",
/* pixels */
"wrqqqq99qqrrattttttttttrttttttttrurru9rrqqqrrqrrrrrrrrrr9rrrrrqrrqrurrrqrrr99997q9977797q979tq7q99999997q799699699:9q7qq99977779",
"rqrq999977qrsisssaasaassaaaaaaaappurrruuppppppppspppsspsasaair9rfsssaadsiiiuuurr997777759rq9rr9rrqqtqrqqrtqqqqrr999riturttuttutt",
"rrqqq9999797itttuuuuuuuuuuuuiuiuppur59pt9q9qqrqrrrrrrrrruuuut959urqrqqrqrr999997977777,6:9957,,7,75756,57,,,,,66:--,r799qq9qq999",
"qqqq99797579sisssdssdssdaaaaaiaaupur59prrrrttrttuttuuuuutttuu97riuisaaiiiuuurrr97757555,-qr5,5,,,,,,,,,,,,,,,,,,9,:qirtiuuuuuuuu",
"qr9997779599iiaiiiuiuiiuiiiiuiuuuuur5rs9999qqqqrr9rrrrrruutui95ruruiuuurrrrq99977755755,,rt5577,77777955q,7777,7,:-7r7qrqqqrqqqq",
"999777779997irrquuuuuuuutttttrttuuq65rp9qqqqrrrqrrrrrrrtrqqrr7,9ur9r99qqqqqq99775766655,,9q,,5,,,,,,,,,,,,,,,,,,,::qr7qq999q9999",
"777777775599itiirrrrrrrrttttttrrqr655ru999999999799799999q9qq99qtq995799777575556,55,,5,6qq779,7,77,,75,,,,,,,,,:,,qq,,,,59,5555",
"777775775599t99r9q9q9q999999777769569rr6996999597779595979757557957775757575555:6,,,,,,,,q9,,,,7,,5,,,,,,,,,,,:::,,,,:6,,,,5,7,5",
"75775575559r975566,566657575555557559r967,557555559555775555:59t555,5,5,::::,::::,,:,,:,77,,,,,,,,::,:::,:-,::::-:,,,:--::::-:--",
"979999r999qtt9999999999995r5997979969r99q9q99999999575755776557q7675757,797:97796,766755qq955,7,765,6777,-,,,,,,,6q9,,,,,:,,,,,,",
"trrtrtttqrrrtrqrrrttttr9ttstauiauuuuuuurrrqqqq9qrqrriupuiuiiuuuuuuuuutttttrq9qruttttutrrrqq9977779779999tqrtrrrqqqq9q669,9,,,6,,",
"irttrttrtttuttuiyytttrqqqqsuauiauiutrutrrrrq9997759rspauiuiiiiiiiuiuuuuuuuuq9quiutuurtrrq9q99775,,,,,,,9itrtqqttrq9999697,,6,,,,",
"u99q999977757799rrqq999659atuuuauuuurrrqqqq997775569pipuuuuuuuuuuuuuuuuuuut9:9rrutttrrrrrqq99977q7,7,,,,tqqrq9q9qq9997,77,,,,,,:",
"t7597799rrrrqtttr99999999qsuaaaaiiiiuuuuqqqq99779569ppddsdappaapaaiaiiuittt9:9tqiiuuuuturrrrq9q99779,,,,rqriuutrqq9qqq9,,,,,,,::",
"u97999999qqq9qr9r999999959arututuuttrrrqq99997975,59uuadssapuiuuuuuttttttru9:9u9rrrqrqr9qq99q999,,6,,::7q99tqrqq9q99q,,q,,,::::-",
"i9799777577777777699997579iqtttqrrrrrrq9777775756599ptuiippuuturtrurttrrrqq9-9u999999969677,5,,,6,,,,::,t977,676665,,,,,,,:-----",
"r969996999999996799799995rr99999qr97999977777577,,5qtrtuipiuuutttrrrqrrrrrr757q757776767,575,,,,,,,,:-:5q9,,5,,,6:::,:---:--:---",
"r969996966666699666655559qr9699659577,:7557,77,7957qq99t99qttuttuttrq997797,59955,55,,,,,,,,,,,,,--:-:,97,,,,,:::---:-::--------",
"9666666666996666979799999r9966665,557:775,,5:,,:557995,,,5,5,,,:::,,,:::,5::797:,,,,:,,,,,-:,,:,,,:::,6r,,,:,::--:::------:-----",
"r9999999r999r99997775959rrr96999q9qqq9qq999999q7999qq955757777795577777777779q95755566677755,5,5,,,,,,,67,,,,,,,,7,,::::::::::::",
"yyyyryyyprryppypppppppppupuuppyyuruuqqtruttttttrrrrttttttrtttrruuuutttttrrrrrrrqrrqqqqqq9rttrtttiutuuruurrrqrqr9q967qqqq99997999",
"pypppppyp99rppppypupuuuuppppppppauiu9quqqqqqqqrrrqqqqq9qt99775,5uurqrqqrrrtrqrttttqttrqq,9utrtttrqqrrrrqttrrrrrrr,,7qqqqqqrr9qqq",
"ruttyyyrp999rpypppppppppppupppppauir:ru777,7555,77,7,75755577,7qrrrrrrttrrtrqqrtqqqqqq95:9rr9rq9rrtrrtrrrrrrqqrqr,-,96,6,,,,,,,,",
"utpprpyyy99ryypppppdpspdpppppppyuuiq:qi,7797779755777797q5797,,9rtttuuuuutuuttrrtrrqtq97,7rttiptiutttttrrtrrqrq9q::7q,:,7,9,9779",
"tutttrtty96rpyypuuuuuuuppuuuuuururu9:ru7999999997757797797797,5qrqqrrrqqrrqqqqqq9qq79q9,,9rqqq99qqq9qqqr9q9999979:,99,,,,7,57,96",
"rrrrrrrrr96rrr9rrrrrrrrrurur9rrutqr9:ru766,6,6,,57777,7,5,,75,,9q9799777777797576995776::7967977999q799999979799,-:57,,,,,,:,,,,",
"rrrrrrrrr99yyr999rrrr9r99999999rq9977rt7999999997977757,77597,7qq97997797799q9799q999q7,,q7,55,5,,,,,:,,,,,,,,,,,:,97,,,,,,,,,,,",
"699999999699996665666565559666557:755rq,,,66,,6,,,,,,7,5,,,,,,596,::5,::555:,5,5,55,,6,:,7,,--:-::,:------::--:---,,:---:-------",
"555555669699966666665669955599657,779qq66,6,,,6,,,,,,,,,,,6,,,576:::5::5,,::,,:,:,:::::-77,,,:-,:,:,:,::,,:,:,-:::,,,--:-----:--",
"rrrrrrrrrrryyrrrrrrr9rrrrr9999r9q9qqrrr9qqqr99rqrqq9qq9q9999q9rrqq799979799qqq77577757759r977579,9,6,77,5,,,,,,,,,9q7,,,57,6,66,",
"rrrrrrrr9rrrrrrrrrrrrrr9rruuutupturtttrrqqqqq99qqrrrrrrr9999999qq999997799999qqrqqqqq999997577,7q76667799999q9979,77,67,5,55,,,,",
"uuutuutupyyrpyrpryypptr99tpdpuupiiuuutqtrqqq9999,,7qrqrrrrtqqrrttrqrtrrrtq7579tiiuuuttttqq999777,,,,,,,,uutttrrrtqq9599656,,,::,",
"p699996969999996rrq979756qp7u9urtrrrqqqqq99977576,,qr,,5,,,6,,6,5,556,6,,66::9r7q9999999996966667,,,,,,,r,q999697,9,2,11>>>>&&&&",
"p5999r9r9rrrrrrrqrq999995rardusaiuuuuttrqqq9977575,rt7757555665766556666666::9yqppyyyrryrrr9q9997755,,,,uqytrtrtqqqr8766>2>>>>&&",
"p669996999999rr999977996,qprstiuuuttrrrr997777556,:qr5556676,7676555,666566::7r9rrrrrqr999999696,5,,::,,y9ryqrqrqw,q62,>>>;;>&&&",
"p699696999999969699979755qu9t9q9qqqq9979777555,5,,:qq575666667,56,66,56,566,-6r99697666655555,,,,,,,--:,r,,,,6,,,,,,>>>>>>&&&&&#",
"u999996969999999999q79977rt9q9qq999777966969555,55,qr69766776,75,66,6,65,,6,,7q666696666,,,,:::,:-:---:,r,9,,,>>,,>>>&>-;&;&&&&#",
"r569596969696665695,575,7qq7777955555,,,,,,,,,,,,,,q95,6,,,,6,,,,,,,,:,,,,,,:77:5,,:,,,,:::::---------,,,,,,>>>>&>&&&&&&&&###&##",
"9566595669966566557,56557r9,,5:::,,:,,,:,,,,,,,,:5:99:::,,,,,,,,,,,,,,,,,:-,,75:--::-----:------:----:,,,--##-#&&&&&##&#&#######",
"r699699999999999999599979tq779777799979979,96599,79qq55:57667575,6,5,6,66,:,697:55,:,5,5,,5,,:::,::,:,,q,-,>>,>>>>>>>>>->&&>>->>",
"rrrrrrrrrtr9prputututuutuuttuttttrrrrqqqrqqqqqqqqqqqqqqq9rr9r99rrr9r9rrrrqqq9999qq999997,9r999999q9988888888888882;2822222222222",
"pppppuppuurrdpppppppppppuuuuuuuuputq5qtrttttututiiiiiiiaiaiutr,qyyrrrrrrrrrrrrrrrqq999999ryrrprrtttywyywww8ww8w882>88888w888w88w",
"uuutuuttr999pruuttttttttppuppuuupruq,9uq999999q999999999rrrrr,:,99999969qqqqq999qrqqqr96-69799999999w888wwwwwww88>&28>>2>1122222",
"uuuuuuuuur99puppsdddsddspuupuuuuuriq:7u697999q99qrqqrrrrr99tt9,6yrryyyyyrrrrrrrrqq999975:9pyyyypyyyyyyyywww888888>&88>>>>1>1>2>2",
"uruutttrrr69ptpptttttttttutputtttru9:7u59q9qqqrq99999999rqrtt,,99999999qqqqqqqqq9999996,#6q9999r88888qww888888888>&8w>22>2222222",
"rrr9rrrrr956p9r9trrttrttrrrrtrrrrqr7:9u7777777779999qqq99999q,:999699967767677666777966,,9q776999,88,8,888888,282&#22;>>>>&>>>>>",
"rrrrrrrrr999p999qq99999999999999999,:9r95757777776676696,966q9,966555555777777676766765:,69,,,,,,,,>,>>>>>>>>>>>2>&22;-->-;;;;>>",
"r9r99r999959r5556,565555,55,5655:5557q7,,5555,55,6,,6,,6,9,:,,,65,:,,,,,,:5,5,5,5655565::6,--:-->>>;>;;&&&&&&&&&&&&>>&;&-&;&&&&&",
"5569555555999655755555556,,,,6,,,,::7q7::,,:,,:::,,:,::,:,,,,,79,,,-::::-:--::----------6,,--#--#--&&#-#&&&&&&&&#&>2>&&#&#&#&##&",
"95559999999r995599777796q79779567977qrq766766766779,q,57,,,,,,,9555,,,,,666,6,,,6,6,,6,,966,,,,,,;,,,116&>>&>>&&>>22>>>>>&&&&>>&",
"ppuptppuuuuppuuuuutuuutrqqtrrrrtqrqqqrr9rrrrrtrrtq97t9qqrrrrtrrtrrrrrrrr999969999997996999999999799766668228888828822>2288888822",
"fpppuuptupuppuuutuuuuurr79urrtrtuppiuiiuuuuuuuuuu996t979999q99779q9qqrqq9996,699666666666666666666766,>>w8888888www8wwwy8w8w8888",
"prtupppuppupupppupppputq59tq997959997799rrqrrrrrt75,q,,,,,,,,,,,6696969699q,-,96:-,,:,::-,,,::::--,,>&&-w2>>2>22>>>>>22>2228882>",
"puppppppsssppddpssppppur,7tq79799qqqrqrrqqqqqqrrt7,5r::,,,,,,7999999qqqqq9r6-,9,:--:----,-,-,-:-,,-,>&&-w2>>>>>2222868662822882>",
"prupurpupppupppuuuurtur9,9tq9qqq99999q99qqqqrrtrt5,7u,:5,,7,979999999999q996-6r:,,,,,,,,,,,,,,,,6,,,>&&>w2>22>>2>2>2>2222882882>",
"rrrurrurtrrrruurrtrrrur7,9t959579977779767997999r,,5t,:,,,77777,66666696769,-6r:,,,-:,-:-:-:-,:,,--,>&&>8>&>>>>>>>>>>>>1>>>>>22&",
"rrrrrururuurrrrrurrrrr995999777559759,69699,96675,599,,,,5,5,,7,,6,,,,,,,6,::67,,,::---:,-,;;--;---,;-->2>&>>&&>&>>&&>>&>&&>&&>>",
"99r99999999999rr997799965795,,,,:55,6,,6,67,6,,5,,,77,,,,,,,::::,,,,,,,,:,:-,,,,:--:-::,----;-;;-##-##-12&#&&&&&&&&&&&&>#&&&&&##",
"665555555555:5:55::5555:9995,55,:::5,::,::::,:::,,,75,,,:,,::,,:,:,:,-::::-:,6,:--------------&#-&&--->8>##%&##&%&&&%@@%&&&&#&##",
"rr99999999999969975596659996656595799,9969,967,6557qq7,,,,7,77,9,,,6,,,,,,,6999,,,,,,6,,6,,;,,,-,-->>;>22>>>>>&>>&>>>&&&&&&&&&&&",
"ur9r9r9r999rurrtrrttttttrttrrrrrurrr79rrrrrrqqrqqqqqq99qrqqq9779r999q99999999999997779666666699888888688w88888888>>88w8wwww8w8w8",
"9999969555599666qqq9rrrrrrrrrrttrqq9:9rq699999997777579977795,,7q76,7,,7,66,,,66776666,,,,6,>66622288886282222888&&8ww8w22888882",
"urrr999996699655::555566555576759,q9:,r,,,,,:,:,,,,,,,,,,,,,,,,79,:::--,,,::::,,,--,,,---,,-#&&&&&&&>-&&>>>>>>>>>%%>822888888888",
"rurrr99965699955799995969979999999r,-9t:,6,6,,,,,,56,57,,,77,,,,9,-:,:-,,,-,,,,:6,,,,,,,-,6--->>>>>->>>>>>2>>>2>>*&2828w8wwwywwy",
"qrrq996797,9u,q,599,9696996979699697-6r555555666,,66,5,56,56,:,69,,,,,,:,,,,,:-,>>>>>>>>&22&&>>>>>>>>>>>>>&>>2>>>&&>88>228282888",
"7577,7,,,,,9t:97976959,6666966667,96,9r,55,6,,,,,:,,,,5,,-,,,-,67,-,,,::---:,:,,>&>>>>>&&22>>>>>>>>>>>&&>&>&>>>&>&#>>>>82>223>2>",
",7,77575,,,rt597969966,9::,,::,,,,,,,69,,65,,,,,66,,,,,-5,,5,,699,,,,,,,,,::,,::>&&&>&&&&82>>>>>>>>&&&&&#&#&####&&&>>>>222222222",
"579,7,65:7,qr69,,,,6,,,,,,,,,,,,5,5,,99,,,5,,,,,-:-,,,,5:-----,6,--:::--,,-----#&>&&>&&&>22&&&&&&&&&&&&&#&&&&###&%&&>&>>&&&&&&&&",
",,5,:,,:,,,r9:,:,,,,,,,:6,,::,,:,,,,576,,,,,,,,,,,,-----:::::,56,,-:::-----:-:--&&&&&&&#>2>&&&&&&&&&&&&&########@#&>&@@@@@@@*%%%",
"979q99q9qq9t99q9q99q9999q77677966666699566656666699666,,::,,,,,6,,::::::,6,,,,,,>>>&>>>>22>>>>>2>>>>&>>>>>>>>>>>>>>3>>&&>>>>>&>&",
"rrrrqrrr9t9uq9qrqqqrqqqqrriiuuuirpyryyrr99676666,,69ryyrryyrryyyyyyrryyyrrr9766788882888262222222222222>yww88w88288822>3>&>&&&&&",
"trq997999r7r999q99q9q966:7turqqrrr9999696766655,6,,6999666799966677999qq9996,,,92>>>>>>>>22>22>>2>>>>>&&w882288>22>>>>>>>>&&&&@%",
"u5,95:,7,,9,7,,9,5,9,,5,,9i9irprrrrrrq9997666,,,-:-:p--,--:--:,6679999qrq9y7#:9:&&&&&&&&&&&&&&&&>>&&&&&>82888w88882222>>&&&%%*@@",
"i9,775579,,9995977599699,,t9irptrrrrq999766655,,,:,,p--,::,66999qqqrryrryry9#,9:>&&&&>&>&>&>>&>>&>>>>&&>w2888w888822>>>>>&&&&@@@",
"u7,77775999,,97569,7,9,6:,u9tqtrr9q999666665,,,:-,:,y-:,,,66999999q9qqrqqqr9#:9:&>>>>>&&&>>&>&>&&>>&>&&&828222223>>>>>&&&&%&&@@@",
"t7775,77,9,77,,7559,9,9,,5t99,9,96965656,,,,,,,,---,r:,,,66666,5666666676,7,-,9,>>&&&&&>>&&>&&&&&>>&&&#>8&2>>>&>>&>&&&%&*@@@@@@+",
"t757797,96,59,9,,965,5,6,9r,5,95655,,,,,,,,:,,,,-::6r:,,,,6656565,65,66,6,6,-,6:&>&>&&&&&&&&&&&&&&&#&&&&2&>>#>&&%%%%#%##&##@@@@+",
"97,9:,75,,,7,,:,,,,,,,,,,57,,:,:-,-:-:-:--:------:-67-,::-----:,:::::::-,-::-,6-&&&&&&#&&&#&%%%%&&####&>>######&++++++@@@@X+++XX",
"9,,,,,,,,,,:,,,,,,:,,,,,997,,,:-,-,,,,,::,,,:-:--::76-,-:-------------------:6,:&&&&&&&&&&&&&%%&&&&#&&&2>#######@@%@@@##@@@@@@#@",
"q75795799999999,99979,99,999,97,,666966666666666,66q9,6,5,566666,,,,,,,,,,,,,6,-&>>>>>>>>>>&&>&>&>>&&&&2>&>>&>&&>>>>>&&&>&&&>>&&",
"ttqqq9979797itttutuuuuuuuuiupiippyyq,qpypppuppupyypypyyyrrrrr9,6r7998879888888888888882>&2y2ww88wwwwwwwwewwweeeew>&8y8ywwweewe0e",
"rqq997797:,9tqqq9999999q99999rr9yqr6:6rr9979979999969699rr9r96:,7-,,>>->>>>>>&>>>>>>>>>&&>8>2222>>>8>4>4343444442%+>2>3><<<<>><<",
"ttrrrqq99,,,uqqq66999797999999q9q9r6-6r9yupuuuuupyypyyyyrrr995-,9---->--&&&&&&&&&&>&>>>&%>w>22>><>>>>>>4333443448&@28888weeeee0e",
"tttttqqq5,95uqq99999999999rr9qrrqqr9-6r9qqqqrqqqqr9r9999999995-5q:,;>>>->>>>>>>>&>>>>>>&%2w>2>>>2>>4>84>8>3448482%@2888848333383",
"99q9999,6,5,t977676669779999999999q6-6r9q9qq9q9q9999999969696::,8>>-->&-&>&&&;&;&&>&&>&&#>8&>>>>>>>>>>>>>>><<<<3>&@>2>>>33333333",
"75,9,,5,,,55q5,55666565666677,666665-6q6666655556666666669966:-68-;>->&>>&&>>&;&>>&&&&&&%>8#&>&&====>&&>=>===>>=>%#3>&>>&====>&&",
"57559,6,,,77r,,7,6,,555,5,5,5,,,6:6,:69:,6,,,5556666666656655:-66;>>->&>>&&&&>&>&&&&&&&&&>2#&&&&=&&&&&&&====*&&*@+@>>@&%&======>",
",,:,::,,,,7,q::,,,,,,,,,::,,,:,,--::-66#:-:-:-:------;-;---::#-6>#&&&&#&#&&&#&&&#&###&&#&>>X#&#@####@+++*$$$$@$$#@#>&X@+++++++++",
"::::::5:,,,775::,:,,::,,5,,,,,-,,:,,,666::,,::::-,,-,#-;>>&&>>22;>;&;&&&&##>>&#&&&&>&&&&22>&&&#&%%=&&&&&%+&&@##%@&>>&&@&@@%%@%%@",
"ttrrrqrqqrrrrqqqq9qq99q95599q99r9966997,666666,,66669666>>>>>>>2>>1>>>>>22>>22>2>>>>>>>>2>>>&>>>>>,>>>>>3><2<22>>>3>>&&&>&=&&&&&",
"aaiiiuuipiuuuiiuutturttq9rfpspppppptptrr996667666,6,9666w888888888888888682>>28288888888288288888,,>>>>>pwywwyww8ww88882>>&=&&&&",
"qqqqqrqrrrrqqqqrurttrtr5-,p9r9q9q999979,96766,,,,-,,9,;;&&&;&;&#&&&&;&&&>>>##>2>###########&####=&>=&%&&w38828>222>=>&&&=&&&&%@@",
"tuiaaaaaiipipiuutrrrrrq,,7drppsuuuuuyrrr797966,,,-,,9>-->>>;>>&>>>>>>>>>>>>&#22&&>&&&&&&&&>&&&&&%&&&%@%&w8wwwywew888822<>&&&%%@@",
"qqrrrtrqqqrrrrqqr9rrqrq,,7p9uuptttrrrr99676,,,,,,--,9>>>&&>&&>>&&;&>;>;>>->&&>8&&&&&&&#&&&&&&&&&&&&=&@%=w2w08088282222>&&&&%%%@@",
"qqqq9999qqqqqqq9q9q9699,,7r99q9999777,7,,,,,::,:,-;,9,>>&>>&>>>>;&;&&>&>-&>>#>8&&&&&&&&&&#&&&&&&&&&&%@#=w222<3>>>>>>&&&%&#@@@@++",
"99757579979777976999599,,5r959,9666566,6,,::-:--,-;,9>&>>>>&&>&&&;&>;&;&>#&-#>8;&&>&&&&&&&#&&&#&%#&&#@#=8&&&&2>&>>&&&%%%@@@@+++X",
"55,7,9577,9,9,9,7,7755,,599:::,,61,,1,-,-,-,------,66,-:>>>>#>>#&&&&;&&&&&&%>,>&%&&%%%%%&@@%%#%%&%%##@&>>>&%&&&%%##&#+++@@@+++++",
"5,,:,,,:--,:,:,,:::,:::-,79:-:::----,-----------#--1,-########&#%%%#%%%@@%%$=>>&$%#$$@@@%@@@#@@@++++++%&%@+XX+OXXOOX+@@+OXOooOOo",
"9755,7,9q9r77,,,,,,7,6,,999,::,:,,,,,,,,-,,,::::,:,66::,>>&>>>2>>>>>;>>;>>>;>3,>&>;&&>&>&;>&&&%&&&&==>>,>&&&&&&&&>&#@%@O$%$*$*$$",
"r999q9,9,,97t9rqrqqqqrr999q999999999699766666616656665,6222>2>2284244442224>,22>>>>>>>>>>>,32,32>>>>>>>>>>>>>>>=&&&;>>>><><>>>><",
"99997,5,7,9qauiuuuuuuiiuyyyyttuurr96,6q9rryrrrrrrrrryyryyyyyw8>2yywywyyywww0882>>;=&&&&%>>4>>>,>2442>>,,>23>222>>&>8w88w00000000",
"997,,99,,:,,r997q99999998w089999rrr6-6q6,,,1,11,6669669928828>#>482284222>,>>>=&>>>&%%%@%>,>%%&$##&#%%&&###%%#%##XO>>&&>333<<<<<",
"9999,95,5:,7utiuiiuuiuuuyyyyyyrrr996-1q16666666666666669>828w>#2wwwww0www0888222>>>&&&%%%>>;@@#@#&%##&&%%%&%%%%*#X@>w88y00088800",
"9,,9,9,,,:,,r9rrrrrrrrrrwww00q989996#1r16,1,6166699666968w28w&#28848888422>3>>>&&&&%%%%$@>>=@%&##*&#%&&##%%%$#%%&@+&>2>422233333",
",97:,,,,,,:7qqqqqqqrqqqq20q99q9788,--69121>1>21>,,:6161222282&&>82>243,,>,>>>&&>&%%%@@#@@>>%$$@%%##*%%##&%*+$*$$@+@=3>;=>>>>><><",
",,,:,,,,,:,59q99977qqq,9789,,99,66,-,66,>>>>>>>>,6,6>1>>>>>1>&&>1>=;>;;>;>>&==&&%%%@@@@@=11=&%%&%&%%%%##%%*+@$$$@+#=>&%&======>=",
",,,,::::-:,5977,,,,,,,,,,>>>,-,>----,61-&>&&&>&;---,&;;;>&>&&&&2<>&;>>=>%&%@#&%@@@@@@@+@%>>@#@@#@@+@++@++@@+@@@@X+%&%+O@+@$@$$$$",
":,,,:::::,,7,,::::-:---->-&>--#-----;6,-&&&&&&&&#--##&&&&&#&&#>2=&@%@@@@%##@@@%+@@@@++@+%>%+@@+++@+++++#oO++OOoOX+%&@OX+oOOOOOOo",
"7,:,,7,:,,,9,,:::,,,,,,,,,,,,,,,,,,,166>>>>>>>>>,,>;;;;&>&>>>>>2>;&&&%&&>%&>;&>&&&&&%&%&>,>%&&#$&&&&&%&=$$*$$$$%%&&>*%@@$$@@$@@@",
"rq99q99979qqrq99,q9999,9q9q9qqqq9996888612>2>>2>,,16888888888888888888888>38,>8482822222241>>>->&&=&&&=>42232333>>>>>>=&==***$*$",
"rr999qqq99999q9qqqq,,99,,rtrqtrqqq998888>22>>>>>,#,6y8ywwwwwwwwww80w08808882&3w8800q8888122>>>=>&&&%%@&&e8480844<<>>>>>=*=*$$$+@",
"9,:,,,,,,,,,,,,,,77,,,,:-,q99qr,99986666222>>>->,#-1w688888888880800w88888w>O>w>4222,3,>>22>>;&>&&&%@+@%03><23<<>>>>&&%&%%$$++oo",
"r5,5656,79999q6977,,,,,,:,rrrtttywww888222>2>>>-;#>>w8ypiywwwyyeywwww088844>+>8>ww0w88868472,,>>,>>%@O#=44000088442<>>>>**$$++OO",
"q,,5,,,,,,,,,,,,,,,,,,,,,,rr9qqq88862228>>>>>-&&&@;>w8yyyyew009988884888848>+>w44722222<>>>>>>>>#@@@OX@%4<<43<<>3<>>=**%$$$$+OOO",
"r,,,,,,,,,,,,,,,,,,,,,:-,799,7,,222>1>>>>>&&&&&&&@%>88w8ew09834122324422222;+>4>>>>>;>->-==%%%##%@@@#@#%4=;>=;>*****$$$$O++OOOOo",
"q5,,,,,,,,,,,,,,,::,::::,,,,,,,,>>>>>&&&&&&;&&&&&#%>82808www998088844221,2,;@>>;&&&&*&%&==%##+@+@+X+O+@%4=%****$$@$++@+OOOOOoOOO",
"6,,,,,,,,,,,,-,,:-:-:::-,9,,,:::&&&&&&&#&&&&#&&&%#;>,,>,<3224467222,>>>>>;&&&>>@###@#@@@#@@++++@@++XXX#;>@o@++@OOOOOOOXXo+OOOXOX",
",,,,,,,#,,,-,,-#---:----,,,:----&&&&&#&&#&#&#&#&@&>,>>#%@@$%%%%%%%%$$%@@@%@@&>&+@@@++++++@++++++++@@++%>*XXoXOooOOOOOOOo.Xooo...",
"9,,,,55,,,,,,6,,,,,,,,,,,q7,,,::>>>>>>>>>>;>>>-->>>8>>%>=>>=-;;;&&%&&&&&%;&%>>>&-=-&&&&&&&&&%%$#@@##$#*>;$*&#$*$**$$*$$*$$$$+@$@",
"r9qq99q99999qrutrrutrqrrrrr99r998888222266222222,,>8,7,8222,222<888888882082482222141<<<,,247788877884747444233<<>>>>>><<><<<<><",
"999q9qqqr,,,fqq9w88w8ww89qw9wqqqw8w2#2y>22>>,>>>,,>>,>,831<3<%&7e7476545322323224443<42;$4e43444,2232444223444224+o<4=<33<33<333",
"qrrqrqr9r,,,p,rr8ww8w8wwrrwww9qqw882#>8&&&&%&&&&&>%&>&&&:=-;-@%14<353363844848444444<43;o<73384488004044444444224@o>3*%*********",
"q9q9q999r,,,p9yyyyyyyyyyrqqwq8888882#>8&;;&>>&&&=&&;&>=>----;$$<03400000884444444<4433<*$384800880444444223323333$o><%***===*<==",
"99999696r,,,y,q988w88888q9998888868>&>8&;&>&&>>&&>=;=&=&;-=-;&&<4:553<33<333313<<<<<><;*@<4<342,32234444333<<<>3>+o>>==*******==",
"696967699,,,w78,282288,88,8,8,88822&%28>&&&&&&&&=&&&&&&&--$-=$$:3==:&=;;<<>>>><<<;<<=>;$O><=;===>;>><<><>=>>>>>>=+O><$$O$$$***$$",
"56666766,>-,,,,>>22>,,,2>>>>>>>>>>;&&22&;;&>&&>&>&>&>&=&---$-$$:5**:*=<;=====>>=;-<<;<=$@><****=***$$$$$$$$$$$$$$O+=*o$o$$$o$$$$",
"5,,,,,,5,>,,,>>>&&&&&&&&&&&&%&;&&&&%&2>&##&#####%#####%#@--$$$-:*$$$$$$$*******$***=***O$&$XOOo@o@+OoOoOOOOoOoOOoO+>*o*ooooooooo",
"-,:------>,w,#&%&&&&&&&&&&&&&&&&#&&#>2>#&&#&&#&%%%%%%%##O@-@@$-5-+$$@@@+@@@+O++++O++O++.>>*oO@OOOoOO+++oO+OOOOoooO$>o oooooooooo"
};
