/* XPM */
static char *c2a1f38b013340b8a68a80ff6ebf047duRvX7cvunAtW8aaE[] = {
/* columns rows colors chars-per-pixel */
"128 128 3 1 ",
"  c None",
". c #BCA77A",
"X c #CDB685",
/* pixels */
"                                                                                                                                ",
"                                                                                                                                ",
"              XXXXXXXXXXXX                    XXXXXXXXXX                      XXXXXXXXXXXX                    XXXXXXXXXX        ",
"              XXXXXXXXXXXX                    XXXXXXXXXX                      XXXXXXXXXXXX                    XXXXXXXXXX        ",
"            XX............XX                XX..........XX                  XX............XX                XX..........XX      ",
"            XX............XX                XX..........XX                  XX............XX                XX..........XX      ",
"          XX......XXXXXX....XX            XX......XXXX....XX              XX......XXXXXX....XX            XX......XXXX....XX    ",
"          XX......XXXXXX....XX            XX......XXXX....XX              XX......XXXXXX....XX            XX......XXXX....XX    ",
"          XX....XX      XX..XX            XX....XX    XX..XX          ..  XX....XX      XX..XX            XX....XX    XX..XX    ",
"          XX....XX      XX..XX            XX....XX    XX..XX          ..  XX....XX      XX..XX            XX....XX    XX..XX    ",
"        ..XX......XX    XX..XX          ..XX......XX..XX..XX            ..XX......XX..  XX..XX          ..XX......XX  XX..XX    ",
"        ..XX......XX    XX..XX          ..XX......XX..XX..XX            ..XX......XX..  XX..XX          ..XX......XX  XX..XX    ",
"          XX........XX    XXXX          ..XX........XX  XXXX              XX........XX    XXXX            XX........XX  XXXX    ",
"          XX........XX    XXXX          ..XX........XX  XXXX              XX........XX    XXXX            XX........XX  XXXX    ",
"          XX........XX    XX              XX........XX  XX                XX........XX    XX              XX........XX  XX      ",
"          XX........XX    XX              XX........XX  XX                XX........XX    XX              XX........XX  XX      ",
"          ..XX......XX                  ....XX......XX                    ..XX......XX..                  ..XX......XX          ",
"          ..XX......XX                  ....XX......XX                    ..XX......XX..                  ..XX......XX          ",
"        ....XX....XX....                    XX....XX..                    ..XX....XX..                  ....XX....XX....        ",
"        ....XX....XX....                    XX....XX..                    ..XX....XX..                  ....XX....XX....        ",
"        ..  XX....XX  ..                    XX....XX..                  ....XX....XX                    ..  XX....XX  ..        ",
"        ..  XX....XX  ..                    XX....XX..                  ....XX....XX                    ..  XX....XX  ..        ",
"          XXXXXXXXXXXX                    XXXXXXXXXXXX..                ..XXXXXXXXXXXX                    XXXXXXXXXXXX          ",
"          XXXXXXXXXXXX                    XXXXXXXXXXXX..                ..XXXXXXXXXXXX                    XXXXXXXXXXXX          ",
"            XX....XX                        XX....XX                        XX....XX                        XX....XX            ",
"            XX....XX                        XX....XX                        XX....XX                        XX....XX            ",
"              XXXX                            XXXX                            XXXX                            XXXX              ",
"              XXXX                            XXXX                            XXXX                            XXXX              ",
"              XXXX                            XXXX                            XXXX                            XXXX              ",
"              XXXX                            XXXX                            XXXX                            XXXX              ",
"                                                                                                                                ",
"                                                                                                                                ",
"                                                                                                                                ",
"                                                                                                                                ",
"                                                                                                                                ",
"                                                                                                                                ",
"                                                                                                                                ",
"                                                                                                                                ",
"          XXXXXX                          XXXXXX                          XXXXXX                          XXXXXX                ",
"          XXXXXX                          XXXXXX                          XXXXXX                          XXXXXX                ",
"      XXXX......XX                    XXXX......XX                    XXXX......XX                    XXXX......XX              ",
"      XXXX......XX                    XXXX......XX                    XXXX......XX                    XXXX......XX              ",
"    XX......XXXX..XX                XX......XXXX..XX                XX......XXXX..XX                XX......XXXX..XX            ",
"    XX......XXXX..XX                XX......XXXX..XX                XX......XXXX..XX                XX......XXXX..XX            ",
"  XX....XXXX    XXXX              XX....XXXX    XXXX              XX....XXXX    XXXX              XX....XXXX    XXXX            ",
"  XX....XXXX    XXXX              XX....XXXX    XXXX              XX....XXXX    XXXX              XX....XXXX    XXXX            ",
"  XX....XX              XX        XX....XX              XX        XX....XX              XX        XX....XX              XX      ",
"  XX....XX              XX        XX....XX              XX        XX....XX              XX        XX....XX              XX      ",
"  XX......XXXXXX      XX          XX......XXXXXX      XX          XX......XXXXXX      XX          XX......XXXXXX      XX        ",
"  XX......XXXXXX      XX          XX......XXXXXX      XX          XX......XXXXXX      XX          XX......XXXXXX      XX        ",
"    XX........XXXXXXXXXXXX          XX........XXXXXXXXXXXX          XX........XXXXXXXXXXXX          XX........XXXXXXXXXXXX      ",
"    XX........XXXXXXXXXXXX          XX........XXXXXXXXXXXX          XX........XXXXXXXXXXXX          XX........XXXXXXXXXXXX      ",
"      XX..............XXXXXXXX        XX..............XXXXXXXX        XX..............XXXXXXXX        XX..............XXXXXXXX  ",
"      XX..............XXXXXXXX        XX..............XXXXXXXX        XX..............XXXXXXXX        XX..............XXXXXXXX  ",
"        XX..XXXXXXXXXX                  XX..XXXXXXXXXX                  XX..XXXXXXXXXX                  XX..XXXXXXXXXX          ",
"        XX..XXXXXXXXXX                  XX..XXXXXXXXXX                  XX..XXXXXXXXXX                  XX..XXXXXXXXXX          ",
"      XXXXXX      XX..                XXXXXX      XX                  XXXXXX      XX..                  ..XX      XX..          ",
"      XXXXXX      XX..                XXXXXX      XX                  XXXXXX      XX..                  ..XX      XX..          ",
"      XX    ..    XX  ..            XX      ..  ..  XX                XX    ..    XX  ..              ..  XX    XX    ..        ",
"      XX    ..    XX  ..            XX      ..  ..  XX                XX    ..    XX  ..              ..  XX    XX    ..        ",
"        XX          XX            XX                  XX                XX          XX                    XX    XX              ",
"        XX          XX            XX                  XX                XX          XX                    XX    XX              ",
"                                                                                                                                ",
"                                                                                                                                ",
"                                                                                                                                ",
"                                                                                                                                ",
"              XXXX                            XXXX                            XXXX                            XXXX              ",
"              XXXX                            XXXX                            XXXX                            XXXX              ",
"              XXXX                            XXXX                            XXXX                            XXXX              ",
"              XXXX                            XXXX                            XXXX                            XXXX              ",
"            XX....XX                        XX....XX                        XX....XX                        XX....XX            ",
"            XX....XX                        XX....XX                        XX....XX                        XX....XX            ",
"          XXXXXXXXXXXX                    XXXXXXXXXXXX                    XXXXXXXXXXXX..                ..XXXXXXXXXXXX          ",
"          XXXXXXXXXXXX                    XXXXXXXXXXXX                    XXXXXXXXXXXX..                ..XXXXXXXXXXXX          ",
"        ..  XX....XX  ..                ..  XX....XX  ..                    XX....XX..                  ....XX....XX            ",
"        ..  XX....XX  ..                ..  XX....XX  ..                    XX....XX..                  ....XX....XX            ",
"        ....XX....XX....                ....XX....XX....                    XX....XX..                    ..XX....XX..          ",
"        ....XX....XX....                ....XX....XX....                    XX....XX..                    ..XX....XX..          ",
"          ..XX......XX                    ..XX......XX                  ....XX......XX                    ..XX......XX..        ",
"          ..XX......XX                    ..XX......XX                  ....XX......XX                    ..XX......XX..        ",
"          XX........XX  XX                XX........XX    XX              XX........XX  XX                XX........XX    XX    ",
"          XX........XX  XX                XX........XX    XX              XX........XX  XX                XX........XX    XX    ",
"          XX........XX  XXXX              XX........XX    XXXX          ..XX........XX  XXXX              XX........XX    XXXX  ",
"          XX........XX  XXXX              XX........XX    XXXX          ..XX........XX  XXXX              XX........XX    XXXX  ",
"        ..XX......XX  XX..XX            ..XX......XX    XX..XX          ..XX......XX..XX..XX            ..XX......XX..  XX..XX  ",
"        ..XX......XX  XX..XX            ..XX......XX    XX..XX          ..XX......XX..XX..XX            ..XX......XX..  XX..XX  ",
"          XX....XX    XX..XX              XX....XX      XX..XX            XX....XX    XX..XX          ..  XX....XX      XX..XX  ",
"          XX....XX    XX..XX              XX....XX      XX..XX            XX....XX    XX..XX          ..  XX....XX      XX..XX  ",
"          XX......XXXX....XX              XX......XXXXXX....XX            XX......XXXX....XX              XX......XXXXXX....XX  ",
"          XX......XXXX....XX              XX......XXXXXX....XX            XX......XXXX....XX              XX......XXXXXX....XX  ",
"            XX..........XX                  XX............XX                XX..........XX                  XX............XX    ",
"            XX..........XX                  XX............XX                XX..........XX                  XX............XX    ",
"              XXXXXXXXXX                      XXXXXXXXXXXX                    XXXXXXXXXX                      XXXXXXXXXXXX      ",
"              XXXXXXXXXX                      XXXXXXXXXXXX                    XXXXXXXXXX                      XXXXXXXXXXXX      ",
"                                                                                                                                ",
"                                                                                                                                ",
"                                                                                                                                ",
"                                                                                                                                ",
"                                                                                                                                ",
"                                                                                                                                ",
"                                                                                                                                ",
"                                                                                                                                ",
"                XXXXXX                          XXXXXX                          XXXXXX                          XXXXXX          ",
"                XXXXXX                          XXXXXX                          XXXXXX                          XXXXXX          ",
"              XX......XXXX                    XX......XXXX                    XX......XXXX                    XX......XXXX      ",
"              XX......XXXX                    XX......XXXX                    XX......XXXX                    XX......XXXX      ",
"            XX..XXXX......XX                XX..XXXX......XX                XX..XXXX......XX                XX..XXXX......XX    ",
"            XX..XXXX......XX                XX..XXXX......XX                XX..XXXX......XX                XX..XXXX......XX    ",
"            XXXX    XXXX....XX              XXXX    XXXX....XX              XXXX    XXXX....XX              XXXX    XXXX....XX  ",
"            XXXX    XXXX....XX              XXXX    XXXX....XX              XXXX    XXXX....XX              XXXX    XXXX....XX  ",
"      XX              XX....XX        XX              XX....XX        XX              XX....XX        XX              XX....XX  ",
"      XX              XX....XX        XX              XX....XX        XX              XX....XX        XX              XX....XX  ",
"        XX      XXXXXX......XX          XX      XXXXXX......XX          XX      XXXXXX......XX          XX      XXXXXX......XX  ",
"        XX      XXXXXX......XX          XX      XXXXXX......XX          XX      XXXXXX......XX          XX      XXXXXX......XX  ",
"      XXXXXXXXXXXX........XX          XXXXXXXXXXXX........XX          XXXXXXXXXXXX........XX          XXXXXXXXXXXX........XX    ",
"      XXXXXXXXXXXX........XX          XXXXXXXXXXXX........XX          XXXXXXXXXXXX........XX          XXXXXXXXXXXX........XX    ",
"  XXXXXXXX..............XX        XXXXXXXX..............XX        XXXXXXXX..............XX        XXXXXXXX..............XX      ",
"  XXXXXXXX..............XX        XXXXXXXX..............XX        XXXXXXXX..............XX        XXXXXXXX..............XX      ",
"          XXXXXXXXXX..XX                  XXXXXXXXXX..XX                  XXXXXXXXXX..XX                  XXXXXXXXXX..XX        ",
"          XXXXXXXXXX..XX                  XXXXXXXXXX..XX                  XXXXXXXXXX..XX                  XXXXXXXXXX..XX        ",
"          ..XX      XXXXXX                ..XX      XX..                  ..XX      XXXXXX                  XX      XXXXXX      ",
"          ..XX      XXXXXX                ..XX      XX..                  ..XX      XXXXXX                  XX      XXXXXX      ",
"        ..  XX    ..    XX              ..    XX    XX  ..              ..  XX    ..    XX                XX  ..  ..      XX    ",
"        ..  XX    ..    XX              ..    XX    XX  ..              ..  XX    ..    XX                XX  ..  ..      XX    ",
"          XX          XX                      XX    XX                    XX          XX                XX                  XX  ",
"          XX          XX                      XX    XX                    XX          XX                XX                  XX  ",
"                                                                                                                                ",
"                                                                                                                                "
};
